<svg viewBox="0 0 2000 50" preserveAspectRatio="none" xmlns="http://www.w3.org/2000/svg">
    <path fill="currentColor"
          d="m0 34.035 15.625.812L31.25 36.44l15.625.6 15.625-1.22 15.625 2.043 15.625-1.376 15.625-.752L125 37.853l15.625-3.01 15.625 1.796 15.625.18 15.625.75 15.625-2.063 15.625 1.886 15.625-3.58L250 31.507l15.625 1.905 15.625-.448 15.625 1.128L312.5 31.88l15.625-1.477 15.625-.517 15.625.24L375 34.198l15.625-2.12 15.625 2.195 15.625-2.62 15.625-1.23 15.625-1.517 15.625-.142 15.625.944L500 32.849l15.625-1.786 15.625 3.13 15.625 1.642 15.625-1.519 15.625-1.562 15.625-4.17 15.625-2.709L625 27.82l15.625.069 15.625-2.893 15.625.745L687.5 27.11l15.625-1.69 15.625 2.908 15.625-.214 15.625.585 15.625 1.49 15.625-.668 15.625-.855 15.625.327 15.625-5.239 15.625-.115 15.625 1.708L875 22.184l15.625 1.81 15.625-1.396 15.625 2.176 15.625-.789 15.625 1.622 15.625-.083 15.625-1.812 15.625-.493 15.625 3.563 15.625-.224 15.625-2.216 15.625-.533 15.625-2.411 15.625 2.187 15.625-2.303 15.625-3.96 15.625 2.113 15.625.29 15.625 1.619 15.625-2.41 15.625 3.06 15.625-1.401 15.625-1.63L1250 16.51l15.625 3.26 15.625 2.109 15.625-1.597L1312.5 21.7l15.625.39 15.625-1.571 15.625.877L1375 19.41l15.625-5.028 15.625-.406 15.625 2.748 15.625-2.06 15.625.742 15.625.634 15.625 2.5L1500 17.533l15.625-.944 15.625 1.66 15.625-.407 15.625-5.309 15.625-.146 15.625 2.803 15.625-.14 15.625-.14 15.625 4.796 15.625.9 15.625-.521 15.625-.005 15.625-1.26 15.625 2.822 15.625-4.797 15.625.445 15.625 3.702 15.625-1.298 15.625-.138 15.625-3.415 15.625-.102 15.625-4.126 15.625-2.178L1875 12.462l15.625-2.603 15.625.101 15.625-.123 15.625 2.776 15.625-.565 15.625 1.372 15.625-.34L2000 16.56V50H0Z"></path>
</svg>
