<svg id="visual" viewBox="0 0 900 150" xmlns="http://www.w3.org/2000/svg" xmlns:xlink="http://www.w3.org/1999/xlink"
     version="1.1">
    <path d="M0 29L11.5 28.7C23 28.3 46 27.7 69 27C92 26.3 115 25.7 138.2 25.7C161.3 25.7 184.7 26.3 207.8 26.3C231 26.3 254 25.7 277 26C300 26.3 323 27.7 346 28.7C369 29.7 392 30.3 415.2 29.3C438.3 28.3 461.7 25.7 484.8 24.7C508 23.7 531 24.3 554 24.3C577 24.3 600 23.7 623 23.7C646 23.7 669 24.3 692.2 24.3C715.3 24.3 738.7 23.7 761.8 24C785 24.3 808 25.7 831 25.3C854 25 877 23 888.5 22L900 21L900 0L888.5 0C877 0 854 0 831 0C808 0 785 0 761.8 0C738.7 0 715.3 0 692.2 0C669 0 646 0 623 0C600 0 577 0 554 0C531 0 508 0 484.8 0C461.7 0 438.3 0 415.2 0C392 0 369 0 346 0C323 0 300 0 277 0C254 0 231 0 207.8 0C184.7 0 161.3 0 138.2 0C115 0 92 0 69 0C46 0 23 0 11.5 0L0 0Z"
          fill="#55dd75"></path>
    <path d="M0 53L11.5 53C23 53 46 53 69 52C92 51 115 49 138.2 49C161.3 49 184.7 51 207.8 52C231 53 254 53 277 53.3C300 53.7 323 54.3 346 55.3C369 56.3 392 57.7 415.2 56.3C438.3 55 461.7 51 484.8 49.3C508 47.7 531 48.3 554 50C577 51.7 600 54.3 623 56C646 57.7 669 58.3 692.2 56.3C715.3 54.3 738.7 49.7 761.8 48.3C785 47 808 49 831 49.7C854 50.3 877 49.7 888.5 49.3L900 49L900 19L888.5 20C877 21 854 23 831 23.3C808 23.7 785 22.3 761.8 22C738.7 21.7 715.3 22.3 692.2 22.3C669 22.3 646 21.7 623 21.7C600 21.7 577 22.3 554 22.3C531 22.3 508 21.7 484.8 22.7C461.7 23.7 438.3 26.3 415.2 27.3C392 28.3 369 27.7 346 26.7C323 25.7 300 24.3 277 24C254 23.7 231 24.3 207.8 24.3C184.7 24.3 161.3 23.7 138.2 23.7C115 23.7 92 24.3 69 25C46 25.7 23 26.3 11.5 26.7L0 27Z"
          fill="#38d45d"></path>
    <path d="M0 99L11.5 98.7C23 98.3 46 97.7 69 100C92 102.3 115 107.7 138.2 108C161.3 108.3 184.7 103.7 207.8 101.7C231 99.7 254 100.3 277 102C300 103.7 323 106.3 346 105.7C369 105 392 101 415.2 98.7C438.3 96.3 461.7 95.7 484.8 99.3C508 103 531 111 554 112.3C577 113.7 600 108.3 623 107C646 105.7 669 108.3 692.2 111.7C715.3 115 738.7 119 761.8 116.7C785 114.3 808 105.7 831 102.7C854 99.7 877 102.3 888.5 103.7L900 105L900 47L888.5 47.3C877 47.7 854 48.3 831 47.7C808 47 785 45 761.8 46.3C738.7 47.7 715.3 52.3 692.2 54.3C669 56.3 646 55.7 623 54C600 52.3 577 49.7 554 48C531 46.3 508 45.7 484.8 47.3C461.7 49 438.3 53 415.2 54.3C392 55.7 369 54.3 346 53.3C323 52.3 300 51.7 277 51.3C254 51 231 51 207.8 50C184.7 49 161.3 47 138.2 47C115 47 92 49 69 50C46 51 23 51 11.5 51L0 51Z"
          fill="#00ca43"></path>
    <path d="M0 165L11.5 167C23 169 46 173 69 173.3C92 173.7 115 170.3 138.2 167.7C161.3 165 184.7 163 207.8 164.7C231 166.3 254 171.7 277 172C300 172.3 323 167.7 346 164.7C369 161.7 392 160.3 415.2 161.3C438.3 162.3 461.7 165.7 484.8 166.3C508 167 531 165 554 164.3C577 163.7 600 164.3 623 164.3C646 164.3 669 163.7 692.2 165C715.3 166.3 738.7 169.7 761.8 171.7C785 173.7 808 174.3 831 171.3C854 168.3 877 161.7 888.5 158.3L900 155L900 103L888.5 101.7C877 100.3 854 97.7 831 100.7C808 103.7 785 112.3 761.8 114.7C738.7 117 715.3 113 692.2 109.7C669 106.3 646 103.7 623 105C600 106.3 577 111.7 554 110.3C531 109 508 101 484.8 97.3C461.7 93.7 438.3 94.3 415.2 96.7C392 99 369 103 346 103.7C323 104.3 300 101.7 277 100C254 98.3 231 97.7 207.8 99.7C184.7 101.7 161.3 106.3 138.2 106C115 105.7 92 100.3 69 98C46 95.7 23 96.3 11.5 96.7L0 97Z"
          fill="#00af3b"></path>
    <path d="M0 201L11.5 201C23 201 46 201 69 201C92 201 115 201 138.2 201C161.3 201 184.7 201 207.8 201C231 201 254 201 277 201C300 201 323 201 346 201C369 201 392 201 415.2 201C438.3 201 461.7 201 484.8 201C508 201 531 201 554 201C577 201 600 201 623 201C646 201 669 201 692.2 201C715.3 201 738.7 201 761.8 201C785 201 808 201 831 201C854 201 877 201 888.5 201L900 201L900 153L888.5 156.3C877 159.7 854 166.3 831 169.3C808 172.3 785 171.7 761.8 169.7C738.7 167.7 715.3 164.3 692.2 163C669 161.7 646 162.3 623 162.3C600 162.3 577 161.7 554 162.3C531 163 508 165 484.8 164.3C461.7 163.7 438.3 160.3 415.2 159.3C392 158.3 369 159.7 346 162.7C323 165.7 300 170.3 277 170C254 169.7 231 164.3 207.8 162.7C184.7 161 161.3 163 138.2 165.7C115 168.3 92 171.7 69 171.3C46 171 23 167 11.5 165L0 163Z"
          fill="#009433"></path>
</svg>
